<?xml version="1.0" encoding="utf-8"?>
<!-- Generator: Adobe Illustrator 20.1.0, SVG Export Plug-In . SVG Version: 6.00 Build 0)  -->
<svg version="1.1" id="Camada_1" xmlns="http://www.w3.org/2000/svg" xmlns:xlink="http://www.w3.org/1999/xlink" x="0px" y="0px"
	 viewBox="0 0 100 125" style="enable-background:new 0 0 100 125;" xml:space="preserve">
<style type="text/css">
	.st0{fill:#FFFFFF;}
</style>
<g>
	<g>
		<path class="st0" d="M66.7,29c7.1,0,12.9,5.3,13.8,12.1l-3.9-2.7c-0.5-0.3-1.1-0.2-1.4,0.3s-0.2,1.1,0.3,1.4l5.7,3.9
			c0.2,0.1,0.4,0.2,0.6,0.2c0.3,0,0.6-0.2,0.8-0.4l3.9-5.7c0.3-0.5,0.2-1.1-0.3-1.4s-1.1-0.2-1.4,0.3l-2.4,3.5
			C81.2,32.8,74.6,27,66.7,27c-0.6,0-1,0.4-1,1S66.1,29,66.7,29z M25,25h10c0.6,0,1-0.4,1-1s-0.4-1-1-1H25c-0.6,0-1,0.4-1,1
			S24.4,25,25,25z M18.1,55H16c-0.7,0-1.4,0.1-2,0.2c-0.5,0.1-0.9,0.6-0.8,1.2c0.1,0.5,0.5,0.8,1,0.8c0.1,0,0.1,0,0.2,0
			c0.5-0.1,1.1-0.2,1.7-0.2h2.1c0.6,0,1-0.4,1-1S18.7,55,18.1,55z M28.1,55h-4c-0.6,0-1,0.4-1,1s0.4,1,1,1h4c0.6,0,1-0.4,1-1
			S28.7,55,28.1,55z M84,55H55V26c0-6.1-4.9-11-11-11H16C9.9,15,5,19.9,5,26v68c0,6.1,4.9,11,11,11h68c6.1,0,11-4.9,11-11V66
			C95,59.9,90.1,55,84,55z M16,103c-5,0-9-4-9-9V63.2c0.3-0.1,0.6-0.3,0.7-0.6c0.5-1.1,1.1-2.1,2-3c0.4-0.4,0.4-1,0-1.4
			s-1-0.4-1.4,0c-0.5,0.5-0.9,1-1.2,1.5V26c0-5,4-9,9-9h28c5,0,9,4,9,9v68c0,5-4,9-9,9H16z M93,94c0,5-4,9-9,9H50.3
			c2.8-2,4.7-5.3,4.7-9V57h29c5,0,9,4,9,9V94z M38.1,55h-4c-0.6,0-1,0.4-1,1s0.4,1,1,1h4c0.6,0,1-0.4,1-1S38.6,55,38.1,55z M48,55
			h-4c-0.6,0-1,0.4-1,1s0.4,1,1,1h4c0.6,0,1-0.4,1-1S48.6,55,48,55z M86,74c-0.6,0-1,0.4-1,1v10c0,0.6,0.4,1,1,1s1-0.4,1-1V75
			C87,74.4,86.6,74,86,74z"/>
	</g>
</g>
</svg>
